<?xml version="1.0" encoding="UTF-8" standalone="no"?>
<svg width="64px" height="64px" viewBox="0 0 64 64" version="1.1" xmlns="http://www.w3.org/2000/svg" xmlns:xlink="http://www.w3.org/1999/xlink">
    <!-- Generator: Sketch 3.7 (28169) - http://www.bohemiancoding.com/sketch -->
    <title>Group 28</title>
    <desc>Created with Sketch.</desc>
    <defs></defs>
    <g id="Page-1" stroke="none" stroke-width="1" fill="none" fill-rule="evenodd">
        <g id="Главная" transform="translate(-1095.000000, -67.000000)">
            <g id="Group-15" transform="translate(892.000000, 56.000000)">
                <g id="Group-14" transform="translate(0.000000, 0.000000)">
                    <g id="Group-8" transform="translate(0.000000, 0.000000)">
                        <g id="Group-28" transform="translate(203.000000, 11.000000)">
                            <circle id="Oval-1" fill="#272D30" cx="32" cy="32" r="32"></circle>
                            <g id="1460293095_phone" transform="translate(8.000000, 14.000000)" fill="#FFFFFF">
                                <g id="Layer_1" transform="translate(0.000000, 0.000000)">
                                    <g id="Group" transform="translate(0.000000, 0.000000)">
                                        <path d="M11.1808594,39.0367589 C9.53203125,39.0367589 8.22773438,38.5968379 7.415625,37.7750988 C7.19414063,37.5509881 6.94804688,37.3185771 6.69375,37.0695652 C5.22539063,35.658498 3.39609375,33.8988142 3.49453125,31.6162055 C3.56015625,30.0474308 4.50351563,28.5367589 6.39023438,27.0011858 C8.62148438,25.1916996 10.36875,24.3450593 11.8863281,24.3450593 C13.7730469,24.3450593 14.9789063,25.5818182 16.2585938,26.8932806 C16.3898438,27.026087 16.5210938,27.1671937 16.6605469,27.3 C16.7425781,27.383004 16.8738281,27.4743083 17.1527344,27.4743083 C17.9648438,27.4743083 20.0566406,26.7355731 24.9539063,21.7802372 C27.0703125,19.6387352 28.6207031,17.8126482 29.5558594,16.3517787 C30.4910156,14.8992095 30.8109375,13.7869565 30.4089844,13.3802372 C30.2695313,13.2391304 30.1382813,13.1063241 30.0070313,12.9735178 C28.8421875,11.8114625 27.7429688,10.7241107 27.5214844,9.12213439 C27.2835938,7.42885375 28.0875,5.53636364 30.1054688,2.98814229 C31.6722656,1.01264822 33.2226563,0.0498023715 34.8304688,0.0498023715 C37.0042969,0.0498023715 38.6941406,1.85098814 40.0476563,3.29525692 C40.2855469,3.55256917 40.5152344,3.79328063 40.7367188,4.0173913 C41.5734375,4.86403162 42,6.21699605 41.9835938,7.93517787 C41.9671875,9.55375494 41.5488281,11.5043478 40.7777344,13.5794466 C39.0304688,18.2774704 35.5769531,23.3822134 31.0570313,27.9557312 C27.5707031,31.4833992 23.7726563,34.3802372 20.0566406,36.33083 C16.7835938,38.0822134 13.6253906,39.0367589 11.1808594,39.0367589 L11.1808594,39.0367589 Z M11.8863281,26.1047431 C10.7953125,26.1047431 9.3515625,26.8434783 7.47304688,28.370751 C6.02109375,29.5494071 5.25820313,30.6699605 5.2171875,31.6992095 C5.15976563,33.1849802 6.60351563,34.5794466 7.88320313,35.8079051 C8.14570313,36.056917 8.39179688,36.2976285 8.6296875,36.5383399 C9.10546875,37.0197628 10.0078125,37.2853755 11.1726563,37.2853755 C13.3464844,37.2853755 16.2257813,36.4055336 19.2691406,34.7952569 C22.8210938,32.9193676 26.4796875,30.1387352 29.8429688,26.7355731 C34.190625,22.3363636 37.5046875,17.4474308 39.1699219,12.9818182 C40.7777344,8.65731225 40.3675781,6.1256917 39.5226563,5.27905138 C39.2847656,5.03833992 39.046875,4.78932806 38.8007813,4.52371542 C37.6113281,3.26205534 36.2660156,1.82608696 34.8304688,1.82608696 C33.7886719,1.82608696 32.6566406,2.59802372 31.4507813,4.10869565 C29.79375,6.19209486 29.071875,7.76086957 29.2277344,8.90632411 C29.3671875,9.91897233 30.1792969,10.7241107 31.2128906,11.7533597 C31.3523438,11.886166 31.4835938,12.0272727 31.6230469,12.1683794 C32.7058594,13.2640316 32.5007813,14.9988142 30.9996094,17.3312253 C29.9988281,18.8916996 28.3746094,20.8090909 26.1679688,23.0418972 C21.984375,27.2750988 19.1132813,29.2505929 17.1445313,29.2505929 C16.4636719,29.2505929 15.8730469,29.0098814 15.421875,28.5616601 C15.2824219,28.4205534 15.1429688,28.2794466 15.0117188,28.1466403 C13.7648438,26.8351779 12.99375,26.1047431 11.8863281,26.1047431 L11.8863281,26.1047431 Z" id="Shape"></path>
                                        <path d="M0.86953125,41.9335968 C0.779296875,41.9335968 0.6890625,41.916996 0.598828125,41.8920949 C0.14765625,41.7426877 -0.0984375,41.244664 0.04921875,40.7881423 C1.4109375,36.6462451 5.58632813,34.587747 5.75859375,34.4964427 C6.19335938,34.2889328 6.71015625,34.4715415 6.91523438,34.9114625 C7.1203125,35.343083 6.93984375,35.8660079 6.51328125,36.0818182 L6.51328125,36.0818182 C6.48046875,36.098419 2.821875,37.9162055 1.69804688,41.3442688 C1.56679688,41.7011858 1.23046875,41.9335968 0.86953125,41.9335968 L0.86953125,41.9335968 Z" id="Shape"></path>
                                    </g>
                                </g>
                            </g>
                        </g>
                    </g>
                </g>
            </g>
        </g>
    </g>
</svg>